<svg xmlns="http://www.w3.org/2000/svg" viewBox="0 0 600 320" width="100%" style="max-width:600px;display:block;margin:0 auto;"><path d="M 150.00,160.00 L 150.00,40.00 A 120,120 0 0,1 264.13,122.92 Z" fill="{{PRIMARY}}" stroke="#FFFFFF" stroke-width="1.5"/><path d="M 150.00,160.00 L 264.13,122.92 A 120,120 0 0,1 243.47,235.26 Z" fill="#388E3C" stroke="#FFFFFF" stroke-width="1.5"/><path d="M 150.00,160.00 L 243.47,235.26 A 120,120 0 0,1 161.89,279.41 Z" fill="#F57C00" stroke="#FFFFFF" stroke-width="1.5"/><path d="M 150.00,160.00 L 161.89,279.41 A 120,120 0 0,1 86.04,261.53 Z" fill="#7B1FA2" stroke="#FFFFFF" stroke-width="1.5"/><path d="M 150.00,160.00 L 86.04,261.53 A 120,120 0 0,1 40.11,208.20 Z" fill="#D32F2F" stroke="#FFFFFF" stroke-width="1.5"/><path d="M 150.00,160.00 L 40.11,208.20 A 120,120 0 0,1 150.00,40.00 Z" fill="#9E9E9E" stroke="#FFFFFF" stroke-width="1.5"/><rect x="290" y="50" width="14" height="14" fill="{{PRIMARY}}"/><text x="312" y="62" font-size="13" fill="#333">Research Square <tspan fill="#666" font-weight="600">20.0%</tspan></text><rect x="290" y="76" width="14" height="14" fill="#388E3C"/><text x="312" y="88" font-size="13" fill="#333">BMJ <tspan fill="#666" font-weight="600">15.8%</tspan></text><rect x="290" y="102" width="14" height="14" fill="#F57C00"/><text x="312" y="114" font-size="13" fill="#333">Cochrane Database of Syste… <tspan fill="#666" font-weight="600">12.6%</tspan></text><rect x="290" y="128" width="14" height="14" fill="#7B1FA2"/><text x="312" y="140" font-size="13" fill="#333">JAMA <tspan fill="#666" font-weight="600">10.5%</tspan></text><rect x="290" y="154" width="14" height="14" fill="#D32F2F"/><text x="312" y="166" font-size="13" fill="#333">PLOS ONE <tspan fill="#666" font-weight="600">9.5%</tspan></text><rect x="290" y="180" width="14" height="14" fill="#9E9E9E"/><text x="312" y="192" font-size="13" fill="#333">其他 <tspan fill="#666" font-weight="600">31.6%</tspan></text></svg>